<svg width="50" height="47" viewBox="0 0 50 47" fill="none" xmlns="http://www.w3.org/2000/svg">
<path d="M36.5625 30.3333H34.2912L33.4862 29.6133C35.283 27.6772 36.5961 25.3967 37.3317 22.935C38.0673 20.4732 38.2071 17.8911 37.7412 15.3733C36.39 7.95999 29.72 2.03999 21.67 1.13333C18.8399 0.801236 15.9654 1.07405 13.2664 1.9309C10.5675 2.78774 8.11564 4.20591 6.0985 6.07688C4.08137 7.94784 2.55241 10.222 1.62862 12.7254C0.704832 15.2288 0.410703 17.895 0.768739 20.52C1.74624 27.9867 8.12874 34.1733 16.1212 35.4267C18.8357 35.8588 21.6195 35.7291 24.2736 35.0468C26.9277 34.3645 29.3864 33.1465 31.4737 31.48L32.25 32.2267V34.3333L44.4687 45.6667C45.6475 46.76 47.5737 46.76 48.7525 45.6667C49.9312 44.5733 49.9312 42.7867 48.7525 41.6933L36.5625 30.3333ZM19.3125 30.3333C12.1537 30.3333 6.37499 24.9733 6.37499 18.3333C6.37499 11.6933 12.1537 6.33333 19.3125 6.33333C26.4712 6.33333 32.25 11.6933 32.25 18.3333C32.25 24.9733 26.4712 30.3333 19.3125 30.3333Z" fill="#9747FF"/>
</svg>
